<svg width="48" height="48" viewBox="0 0 48 48" fill="none" xmlns="http://www.w3.org/2000/svg">
<path d="M35.837 28.6402C35.319 29.1422 35.081 29.8682 35.199 30.5802L36.977 40.4202C37.127 41.2542 36.775 42.0982 36.077 42.5802C35.393 43.0802 34.483 43.1402 33.737 42.7402L24.879 38.1202C24.571 37.9562 24.229 37.8682 23.879 37.8582H23.337C23.149 37.8862 22.965 37.9462 22.797 38.0382L13.937 42.6802C13.499 42.9002 13.003 42.9782 12.517 42.9002C11.333 42.6762 10.543 41.5482 10.737 40.3582L12.517 30.5182C12.635 29.8002 12.397 29.0702 11.879 28.5602L4.65702 21.5602C4.05302 20.9742 3.84302 20.0942 4.11902 19.3002C4.38702 18.5082 5.07102 17.9302 5.89702 17.8002L15.837 16.3582C16.593 16.2802 17.257 15.8202 17.597 15.1402L21.977 6.1602C22.081 5.9602 22.215 5.7762 22.377 5.6202L22.557 5.4802C22.651 5.3762 22.759 5.2902 22.879 5.2202L23.097 5.1402L23.437 5.0002H24.279C25.031 5.0782 25.693 5.5282 26.039 6.2002L30.477 15.1402C30.797 15.7942 31.419 16.2482 32.137 16.3582L42.077 17.8002C42.917 17.9202 43.619 18.5002 43.897 19.3002C44.159 20.1022 43.933 20.9822 43.317 21.5602L35.837 28.6402Z" fill="#FFD54F"/>
</svg>
